# xmcd
#
# Track frame offsets:
#	150
#	9747
#	20462
#	34520
#	44530
#	54570
#	65547
#	76790
#	87542
#	98252
#	109625
#	123260
#	133605
#	142395
#	155560
#	163572
#	175435
#	185455
#	196440
#	204870
#	216560
#	228492
#	239237
#	251960
#
# Disc length: 3514 seconds
# Revision: 0
# Processed by: cddbd v1.5.2PL0 Copyright (c) Steve Scherf et al.
# Submitted via: dBpowerAMP V12.0
#
DISCID=5c0db818
DTITLE=Rick Nelson - Bright Lights and Country Fever
DYEAR=1966
DGENRE=Country
TTITLE0=Truck Drivin' Man
TTITLE1=You Just Can't Quit
TTITLE2=Louisiana Man
TTITLE3=Welcome To My World
TTITLE4=Kentucky Means Paradise
TTITLE5=Here I Am
TTITLE6=Bright Lights And Country Music
TTITLE7=Hello Walls
TTITLE8=No Vacancy
TTITLE9=I'm A Fool To Care
TTITLE10=Congratulations
TTITLE11=Night Train To Memphis
TTITLE12=Take A City Bride
TTITLE13=Funny How Time Slips Away
TTITLE14=The Bridge Washed Out
TTITLE15=Alone
TTITLE16=Big Chief Buffalo Nickel (Desert Blues)
TTITLE17=Mystery Train
TTITLE18=Things You Gave To Me
TTITLE19=Take These Chains From My Heart
TTITLE20=(I Heard That) Lonesome Whistle Blow
TTITLE21=Walkin' Down The Line
TTITLE22=You Win Again
TTITLE23=Salty Dog
EXTD=
EXTT0=
EXTT1=
EXTT2=
EXTT3=
EXTT4=
EXTT5=
EXTT6=
EXTT7=
EXTT8=
EXTT9=
EXTT10=
EXTT11=
EXTT12=
EXTT13=
EXTT14=
EXTT15=
EXTT16=
EXTT17=
EXTT18=
EXTT19=
EXTT20=
EXTT21=
EXTT22=
EXTT23=
PLAYORDER=
